<svg width="201" height="224" viewBox="0 0 201 224" fill="none" xmlns="http://www.w3.org/2000/svg">
<g id="undraw_people_search_re_5rre 1" clip-path="url(#clip0_54696_26158)">
<path id="Path 461" d="M191.091 210.749C189.845 211.187 188.506 211.297 187.205 211.068C185.903 210.839 184.683 210.278 183.661 209.44C181.058 207.256 180.241 203.657 179.578 200.325L177.615 190.468L181.726 193.299C184.683 195.335 187.706 197.436 189.753 200.385C191.8 203.334 192.694 207.36 191.049 210.55" fill="#E6E6E6"/>
<path id="Path 462" d="M190.74 222.682C191.156 219.651 191.584 216.581 191.292 213.518C191.033 210.797 190.203 208.139 188.513 205.96C187.616 204.806 186.524 203.817 185.287 203.038C184.965 202.834 184.668 203.345 184.989 203.548C187.129 204.9 188.785 206.898 189.716 209.252C190.746 211.869 190.911 214.723 190.732 217.504C190.625 219.186 190.398 220.856 190.168 222.525C190.15 222.6 190.161 222.68 190.2 222.748C190.238 222.815 190.301 222.866 190.375 222.888C190.451 222.909 190.531 222.899 190.599 222.86C190.667 222.821 190.717 222.757 190.739 222.682L190.74 222.682Z" fill="#F2F2F2"/>
<path id="Vector" d="M175.839 172.337H3.83521V0.33334H175.839V172.337Z" fill="white"/>
<path id="Vector_2" d="M175.839 172.337H3.83521V0.33334H175.839V172.337ZM6.37653 169.796H173.298V2.87469H6.37653V169.796Z" fill="#E5E5E5"/>
<path id="Vector_3" d="M145.368 27.2434H70.8832V29.5637H145.368V27.2434Z" fill="#E5E5E5"/>
<path id="Vector_4" d="M145.368 33.2761H70.8832V35.5963H145.368V33.2761Z" fill="#E5E5E5"/>
<path id="Vector_5" d="M145.368 39.3087H70.8832V41.6289H145.368V39.3087Z" fill="#E5E5E5"/>
<path id="Vector_6" d="M145.368 79.0444H70.8832V81.3646H145.368V79.0444Z" fill="#E5E5E5"/>
<path id="Vector_7" d="M145.368 85.077H70.8832V87.3973H145.368V85.077Z" fill="#E5E5E5"/>
<path id="Vector_8" d="M145.368 91.1097H70.8832V93.4299H145.368V91.1097Z" fill="#E5E5E5"/>
<path id="Vector_9" d="M145.368 130.845H70.8832V133.166H145.368V130.845Z" fill="#E5E5E5"/>
<path id="Vector_10" d="M145.368 136.878H70.8832V139.198H145.368V136.878Z" fill="#E5E5E5"/>
<path id="Vector_11" d="M145.368 142.911H70.8832V145.231H145.368V142.911Z" fill="#E5E5E5"/>
<path id="Vector_12" d="M41.0651 45.7299C39.7926 45.0593 38.4644 44.5004 37.0954 44.0593L36.9209 42.1282L29.8412 41.3655L28.9414 43.8337L26.4006 44.7872C26.3097 44.8216 26.2232 44.8667 26.1428 44.9215H26.1401C25.9983 45.0173 25.8775 45.141 25.7852 45.2851C25.6928 45.4292 25.6308 45.5906 25.6029 45.7594C25.5758 45.9273 25.5822 46.0989 25.6218 46.2643L25.7561 46.8149C25.9494 46.9304 26.1482 47.0406 26.3469 47.1453L26.4732 47.2098C26.7633 47.3602 27.0587 47.5025 27.3622 47.6341C27.4239 47.661 27.4911 47.6878 27.5529 47.7147C27.5582 47.7174 27.5609 47.7174 27.5662 47.7201C27.7087 47.7792 27.8509 47.8355 27.996 47.8893C28.4724 48.0712 28.9584 48.2272 29.4517 48.3566C30.7107 48.6922 32.0082 48.8619 33.3112 48.8615C33.7866 48.8615 34.2566 48.84 34.7212 48.7944C35.7829 48.6964 36.831 48.4848 37.8475 48.1632C37.8502 48.1632 37.8529 48.1605 37.8555 48.1605C38.4977 47.9559 39.125 47.7074 39.733 47.4166C39.7356 47.4139 39.741 47.4139 39.7437 47.4112C39.8806 47.3467 40.0123 47.2769 40.1466 47.2098L40.211 47.1775C40.3184 47.1211 40.4259 47.0647 40.5333 47.0056C40.8019 46.8579 41.0651 46.7021 41.3255 46.5356C41.3981 46.4926 41.468 46.447 41.5405 46.3986C41.6425 46.3315 41.7445 46.2617 41.844 46.1891C41.5941 46.028 41.3337 45.8749 41.0651 45.7299Z" fill="#3F3D56"/>
<path id="Vector_13" d="M27.7784 46.9197L27.3353 44.9188H26.1777C26.166 44.9189 26.1544 44.9198 26.1428 44.9215H26.1401C25.7241 44.9567 25.3234 45.0951 24.9745 45.3243C24.7378 45.4754 24.5274 45.6641 24.3514 45.883C24.6952 46.1435 25.0524 46.3852 25.4204 46.6162L25.4365 46.6242C25.5412 46.6887 25.6487 46.7532 25.7561 46.8149C25.9494 46.9304 26.1482 47.0405 26.3469 47.1453L26.4732 47.2098C26.7633 47.3602 27.0587 47.5025 27.3622 47.6341C27.424 47.661 27.4911 47.6878 27.5529 47.7147C27.5583 47.7174 27.5609 47.7174 27.5663 47.7201C27.7087 47.7792 27.851 47.8355 27.996 47.8893L27.7784 46.9197Z" fill="#3F3D56"/>
<path id="Vector_14" d="M33.1032 40.1446C35.9192 40.1446 38.2021 37.8618 38.2021 35.0457C38.2021 32.2297 35.9192 29.9469 33.1032 29.9469C30.2872 29.9469 28.0043 32.2297 28.0043 35.0457C28.0043 37.8618 30.2872 40.1446 33.1032 40.1446Z" fill="#FFB8B8"/>
<path id="Vector_15" d="M29.6799 32.5622C30.2077 33.1868 31.101 33.3631 31.925 33.4354C33.8515 33.5418 35.7835 33.384 37.6672 32.9665C37.7839 34.0978 37.4656 35.3176 38.132 36.2482C38.4443 35.1215 38.626 33.9627 38.6733 32.7945C38.723 32.2933 38.6576 31.7874 38.482 31.3153C38.388 31.0787 38.2297 30.8733 38.0248 30.7222C37.8199 30.5712 37.5768 30.4806 37.323 30.4609C37.7029 30.1727 38.1479 29.9825 38.6187 29.907L36.9997 29.0934L37.4154 28.6665L34.4843 28.4872L35.3333 27.9478C34.0555 27.7723 32.7629 27.7315 31.4766 27.8261C30.8755 27.8264 30.2858 27.9903 29.7708 28.3002C29.2869 28.6463 29.0072 29.3342 29.3077 29.8423C28.9315 29.904 28.5774 30.0608 28.2788 30.2977C27.9802 30.5347 27.747 30.8439 27.6014 31.1961C27.4172 31.756 27.3727 32.3525 27.4718 32.9335C27.5823 33.8657 27.7989 34.7823 28.1176 35.6653L29.6799 32.5622Z" fill="#2F2E41"/>
<path id="Vector_16" d="M47.4411 29.5184C46.7257 27.4632 45.5706 25.5888 44.0564 24.0259C42.5421 22.463 40.7052 21.2492 38.6736 20.4691C36.6421 19.6891 34.4648 19.3616 32.2937 19.5095C30.1225 19.6574 28.0098 20.2771 26.1028 21.3254C24.1957 22.3737 22.5403 23.8253 21.252 25.5791C19.9636 27.3329 19.0734 29.3467 18.6433 31.4799C18.2131 33.6131 18.2535 35.8145 18.7616 37.9305C19.2697 40.0466 20.2332 42.0263 21.585 43.7317C21.7193 43.9009 21.859 44.0701 22.0014 44.2339C22.0121 44.2446 22.0201 44.2554 22.0309 44.2661C22.381 44.6695 22.7531 45.0533 23.1455 45.4156C23.2476 45.5097 23.355 45.6063 23.4624 45.6977C23.6665 45.8803 23.8761 46.0549 24.0936 46.2214C24.1795 46.2885 24.2628 46.3557 24.3514 46.4202C24.6952 46.6807 25.0524 46.9224 25.4204 47.1534L25.4365 47.1614C25.5412 47.2259 25.6487 47.2903 25.7561 47.3521C25.9494 47.4676 26.1482 47.5777 26.3469 47.6825L26.4732 47.7469C26.7633 47.8973 27.0588 48.0397 27.3622 48.1713C27.424 48.1981 27.4911 48.225 27.5529 48.2519C27.5583 48.2545 27.5609 48.2545 27.5663 48.2572C27.7087 48.3163 27.851 48.3727 27.996 48.4264C28.4725 48.6084 28.9584 48.7644 29.4517 48.8938C30.7108 49.2293 32.0082 49.3991 33.3112 49.3987C33.7866 49.3987 34.2566 49.3772 34.7213 49.3315C35.7829 49.2335 36.831 49.0219 37.8476 48.7004C37.8502 48.7004 37.8529 48.6977 37.8556 48.6977C38.4977 48.4931 39.125 48.2445 39.733 47.9537C39.7356 47.951 39.741 47.951 39.7437 47.9484C39.8807 47.8839 40.0123 47.8141 40.1466 47.7469L40.211 47.7147C40.3184 47.6583 40.426 47.6019 40.5334 47.5428C40.8019 47.3951 41.0651 47.2393 41.3256 47.0728C41.3981 47.0298 41.468 46.9842 41.5405 46.9358C41.6426 46.8687 41.7446 46.7988 41.844 46.7263C41.9755 46.635 42.1072 46.541 42.2361 46.4443C42.2764 46.4148 42.3194 46.3852 42.3596 46.353C44.8759 44.4431 46.7228 41.7856 47.6357 38.7614C48.5485 35.7371 48.4804 32.5016 47.4411 29.5184ZM41.8655 45.7003C41.7769 45.7702 41.6856 45.8373 41.5942 45.8991C41.5055 45.9662 41.417 46.0307 41.3256 46.0898C41.2477 46.1462 41.1698 46.1999 41.0893 46.2509L41.0651 46.267C41.006 46.3073 40.947 46.3449 40.8878 46.3825C40.6649 46.5222 40.4393 46.6565 40.211 46.7854L40.1385 46.8257C40.0365 46.8821 39.9344 46.9358 39.8324 46.9895C39.8189 46.9976 39.8028 47.003 39.7894 47.011L39.7733 47.0191C39.6444 47.0862 39.5127 47.1507 39.3812 47.2125C38.8733 47.457 38.3503 47.6687 37.8153 47.8463C37.7454 47.8705 37.6757 47.8947 37.6059 47.9161C36.6437 48.2222 35.6514 48.4239 34.6461 48.5178C34.2056 48.558 33.7598 48.5795 33.3112 48.5795C32.0788 48.5821 30.8515 48.4213 29.6613 48.1014C29.0505 47.942 28.4518 47.7392 27.8699 47.4945C27.8402 47.481 27.808 47.4703 27.7785 47.4569C27.7463 47.4434 27.7167 47.4327 27.6872 47.4193C27.6549 47.4058 27.6254 47.3924 27.5932 47.3763C27.3407 47.2662 27.0909 47.1453 26.8466 47.0191L26.7284 46.9573C26.4302 46.8015 26.1375 46.635 25.8528 46.4577C25.7695 46.4067 25.6836 46.353 25.603 46.2966C25.5816 46.2832 25.5627 46.2697 25.5412 46.2563C25.3505 46.1301 25.1598 45.9985 24.9745 45.8615C24.8484 45.7675 24.7221 45.6735 24.5985 45.5768C24.3917 45.421 24.1929 45.2545 23.9996 45.0826C23.8976 44.9967 23.7982 44.9027 23.7015 44.814C23.3207 44.4624 22.9602 44.0894 22.6218 43.6968C22.509 43.5678 22.3989 43.4389 22.2941 43.3046C22.2703 43.2781 22.2479 43.2503 22.2269 43.2214C20.4819 41.0193 19.4323 38.3474 19.2119 35.5464C18.9916 32.7454 19.6105 29.9423 20.9898 27.4945C22.369 25.0466 24.4461 23.0651 26.9561 21.8025C29.4661 20.54 32.2952 20.0536 35.0828 20.4055C37.8703 20.7573 40.4898 21.9315 42.6074 23.7782C44.7249 25.6249 46.2444 28.0604 46.9721 30.7742C47.6997 33.488 47.6027 36.357 46.6932 39.0154C45.7837 41.6738 44.103 44.001 41.8655 45.7003Z" fill="#3F3D56"/>
<path id="Vector_17" d="M47.4412 81.3194C46.7258 79.2642 45.5707 77.3898 44.0565 75.8269C42.5422 74.2639 40.7053 73.0501 38.6737 72.2701C36.6422 71.4901 34.4649 71.1626 32.2938 71.3105C30.1227 71.4583 28.0099 72.078 26.1029 73.1263C24.1959 74.1746 22.5405 75.6263 21.2521 77.3801C19.9638 79.1339 19.0735 81.1476 18.6434 83.2809C18.2133 85.4141 18.2536 87.6155 18.7617 89.7315C19.2698 91.8475 20.2333 93.8272 21.5851 95.5326C21.7194 95.7018 21.8591 95.871 22.0014 96.0349C22.0121 96.0456 22.0201 96.0563 22.0309 96.0671C22.381 96.4704 22.7532 96.8542 23.1456 97.2166C23.2476 97.3106 23.355 97.4073 23.4624 97.4986C23.6666 97.6813 23.876 97.8558 24.0936 98.0224C24.5184 98.3572 24.9613 98.6683 25.4204 98.9543L25.4365 98.9624C25.7346 99.1477 26.0381 99.3196 26.347 99.4834L26.4732 99.5479C26.7633 99.6983 27.0587 99.8406 27.3622 99.9722C27.424 99.9991 27.4911 100.026 27.5529 100.053C27.5583 100.055 27.561 100.055 27.5664 100.058C28.1796 100.313 28.8095 100.526 29.4518 100.695C30.7108 101.03 32.0083 101.2 33.3112 101.2C33.7866 101.2 34.2566 101.178 34.7212 101.132C35.7829 101.034 36.831 100.823 37.8475 100.501C37.8503 100.501 37.8529 100.499 37.8555 100.499C38.4977 100.294 39.125 100.046 39.733 99.7547C39.7356 99.752 39.7411 99.752 39.7437 99.7493C39.8806 99.6849 40.0123 99.615 40.1466 99.5479L40.2111 99.5156C40.3185 99.4592 40.4259 99.4028 40.5333 99.3437C40.8019 99.196 41.0651 99.0402 41.3257 98.8737C41.3982 98.8307 41.468 98.7851 41.5405 98.7368C41.7768 98.581 42.0105 98.4144 42.2361 98.2452C42.2765 98.2157 42.3194 98.1862 42.3597 98.1539C44.8759 96.244 46.7228 93.5864 47.6356 90.5623C48.5485 87.5381 48.4804 84.3025 47.4412 81.3194Z" fill="white"/>
<path id="Ellipse 188" d="M38.2487 92.4049C39.4871 92.4049 40.4911 91.4009 40.4911 90.1625C40.4911 88.9241 39.4871 87.9201 38.2487 87.9201C37.0103 87.9201 36.0063 88.9241 36.0063 90.1625C36.0063 91.4009 37.0103 92.4049 38.2487 92.4049Z" fill="#2F2E41"/>
<path id="Path 969" d="M38.8735 87.9819C39.2616 87.9819 39.643 88.0826 39.9806 88.2742C40.3181 88.4658 40.6001 88.7417 40.799 89.075C40.998 89.4082 41.107 89.7874 41.1155 90.1754C41.124 90.5634 41.0317 90.947 40.8475 91.2886C41.0419 91.0454 41.1834 90.7643 41.2632 90.4634C41.3429 90.1624 41.3591 89.8481 41.3106 89.5406C41.2622 89.233 41.1503 88.9389 40.9819 88.677C40.8135 88.4151 40.5925 88.1911 40.3328 88.0194C40.0731 87.8476 39.7805 87.7318 39.4736 87.6794C39.1667 87.627 38.8522 87.6391 38.5502 87.7149C38.2483 87.7907 37.9654 87.9286 37.7196 88.1197C37.4739 88.3109 37.2706 88.5512 37.1229 88.8252C37.3325 88.562 37.5988 88.3495 37.9019 88.2035C38.2051 88.0575 38.537 87.9817 38.8735 87.9819Z" fill="#2F2E41"/>
<path id="Ellipse 189" d="M34.0584 90.1577C37.6964 90.1577 40.6455 87.2085 40.6455 83.5705C40.6455 79.9325 37.6964 76.9833 34.0584 76.9833C30.4204 76.9833 27.4712 79.9325 27.4712 83.5705C27.4712 87.2085 30.4204 90.1577 34.0584 90.1577Z" fill="#2F2E41"/>
<path id="Path 970" d="M28.8885 79.4835C30.0235 78.207 31.6101 77.4214 33.3133 77.2925C35.0166 77.1637 36.7033 77.7016 38.0175 78.7927C37.9638 78.7414 37.91 78.6899 37.8545 78.6402C36.5532 77.4745 34.8422 76.8734 33.0978 76.9692C31.3534 77.0651 29.7185 77.8499 28.5528 79.1512C27.3871 80.4524 26.786 82.1634 26.8819 83.9078C26.9777 85.6522 27.7626 87.2871 29.0638 88.4528C29.0763 88.464 29.0889 88.4752 29.1015 88.4863C29.1573 88.536 29.2148 88.583 29.272 88.6305C28.0345 87.4532 27.3027 85.8411 27.2312 84.1345C27.1597 82.4279 27.7538 80.7602 28.8885 79.4835Z" fill="#2F2E41"/>
<path id="Ellipse 190" d="M34.0025 90.1018C36.3455 90.1018 38.245 88.2024 38.245 85.8593C38.245 83.5163 36.3455 81.6168 34.0025 81.6168C31.6594 81.6168 29.76 83.5163 29.76 85.8593C29.76 88.2024 31.6594 90.1018 34.0025 90.1018Z" fill="#A0616A"/>
<path id="Vector_18" d="M41.5943 96.9131V98.3366C41.3337 98.5031 41.0705 98.6589 40.8019 98.8066C40.6945 98.8657 40.5871 98.9221 40.4797 98.9785L40.4152 99.0107C40.2809 99.0779 40.1492 99.1477 40.0123 99.2122C40.0097 99.2149 40.0042 99.2149 40.0015 99.2175C39.3936 99.5084 38.7663 99.7569 38.1241 99.9615C38.1215 99.9615 38.1189 99.9642 38.1161 99.9642C37.0996 100.286 36.0515 100.497 34.9898 100.595C34.5252 100.641 34.0552 100.662 33.5798 100.662C32.2768 100.663 30.9794 100.493 29.7204 100.158C29.0781 99.9887 28.4482 99.776 27.835 99.521C27.8296 99.5184 27.8268 99.5184 27.8214 99.5157C27.7597 99.4888 27.6925 99.4619 27.6308 99.4351C27.3273 99.3035 27.0318 99.1611 26.7418 99.0107L26.6156 98.9463C26.3066 98.7824 26.0032 98.6106 25.7051 98.4252L25.6889 98.4172C25.2299 98.1311 24.787 97.82 24.3622 97.4852C24.1446 97.3187 23.9352 97.1441 23.731 96.9615C23.6236 96.8701 23.5162 96.7735 23.4142 96.6795C23.0218 96.3171 22.6496 95.9333 22.2994 95.5299C22.3459 95.2502 22.4142 94.9745 22.5036 94.7054L22.5062 94.7027C22.5223 94.6568 22.5412 94.612 22.5626 94.5684C22.5775 94.5299 22.5945 94.4922 22.6137 94.4556C23.0944 93.5559 23.9647 93.333 25.0444 93.2846C25.6541 93.2577 26.3281 93.2873 27.04 93.2792C27.416 93.2766 27.8053 93.2631 28.1948 93.2282C30.6523 93.0053 30.2065 91.555 30.3166 90.7734C30.4267 90.016 31.1089 90.6713 31.1546 90.7143L31.1572 90.717C32.5479 91.3678 34.0865 91.6375 35.6156 91.4986C35.8788 91.4663 36.142 91.4475 36.4052 91.4395C37.0982 91.4314 36.9478 91.6302 36.7088 91.794C36.5928 91.8704 36.4717 91.9386 36.3462 91.9981C36.3462 91.9981 36.2361 92.6696 36.1233 93.6741C36.0159 94.6356 37.8583 95.0868 38.0113 95.1217C38.0145 95.1238 38.0183 95.1248 38.0221 95.1244C38.6949 94.9499 39.4033 94.9685 40.0661 95.1781H40.0687C40.4474 95.3173 40.7853 95.549 41.0517 95.852C41.3181 96.155 41.5046 96.5197 41.5943 96.9131Z" fill="#C75EEC"/>
<path id="Vector_19" d="M27.8617 98.6401C27.8617 98.8388 27.8565 99.0295 27.8484 99.2095C27.8457 99.3169 27.8404 99.4216 27.835 99.521C27.8296 99.5183 27.8269 99.5183 27.8215 99.5157C27.7597 99.4888 27.6926 99.4619 27.6308 99.4351C27.3273 99.3035 27.0319 99.1611 26.7418 99.0107L26.6156 98.9463C26.3067 98.7824 26.0032 98.6105 25.7051 98.4252C25.7131 98.3312 25.7266 98.2372 25.74 98.1432C25.7695 97.9364 25.7937 97.7269 25.8099 97.5201C25.9155 96.0672 25.6522 94.6112 25.0444 93.2873V93.2846C24.9906 93.1772 24.9585 93.1181 24.9585 93.1181C24.9585 93.1181 25.74 92.4466 26.8545 93.1181C26.9258 93.1599 26.9886 93.2145 27.04 93.2792C27.7114 94.0715 27.894 96.7358 27.8617 98.6401Z" fill="#2F2E41"/>
<path id="Vector_20" d="M40.0579 98.2748C40.0472 98.5756 40.0311 98.8899 40.0123 99.2095V99.2122C40.0097 99.2149 40.0042 99.2149 40.0015 99.2175C39.3936 99.5084 38.7663 99.7569 38.1241 99.9615C38.1215 99.9615 38.1189 99.9642 38.1161 99.9642L38.0866 99.2095L38.0839 99.1101L37.9416 95.4359C37.9378 95.3528 37.9508 95.2697 37.98 95.1917C38.0092 95.1137 38.0539 95.0425 38.1114 94.9822C38.1688 94.922 38.2379 94.874 38.3145 94.8412C38.391 94.8084 38.4734 94.7915 38.5566 94.7914H39.9183C39.9854 94.7914 40.0338 94.9283 40.0661 95.1754V95.1781C40.1321 96.2094 40.1294 97.2439 40.0579 98.2748Z" fill="#2F2E41"/>
<path id="Path 975" d="M30.374 80.5562V84.7997H31.3565L32.6067 83.4601L32.4394 84.7997H36.7823L36.5138 83.4601L37.0509 84.7997H37.7433V80.5562H30.374Z" fill="#2F2E41"/>
<path id="Ellipse 191" d="M29.7042 85.5803C29.8892 85.5803 30.0391 85.3054 30.0391 84.9663C30.0391 84.6272 29.8892 84.3523 29.7042 84.3523C29.5192 84.3523 29.3693 84.6272 29.3693 84.9663C29.3693 85.3054 29.5192 85.5803 29.7042 85.5803Z" fill="#A0616A"/>
<path id="Ellipse 192" d="M38.3011 85.5803C38.4861 85.5803 38.636 85.3054 38.636 84.9663C38.636 84.6272 38.4861 84.3523 38.3011 84.3523C38.1161 84.3523 37.9662 84.6272 37.9662 84.9663C37.9662 85.3054 38.1161 85.5803 38.3011 85.5803Z" fill="#A0616A"/>
<path id="Vector_21" d="M42.5046 97.7081C42.2791 97.8773 42.0454 98.0438 41.8091 98.1996C41.7365 98.248 41.6668 98.2936 41.5942 98.3366C41.3337 98.5031 41.0705 98.6589 40.8019 98.8066C40.6945 98.8657 40.5871 98.9221 40.4797 98.9785V96.0187C40.4797 96.0187 40.9093 96.3625 41.5942 96.9346C41.6801 97.0071 41.7688 97.0823 41.8628 97.1629C42.0615 97.3294 42.2764 97.5121 42.5046 97.7081Z" fill="#C75EEC"/>
<path id="Vector_22" d="M47.4412 81.3194C46.7258 79.2642 45.5707 77.3898 44.0565 75.8269C42.5422 74.2639 40.7053 73.0501 38.6737 72.2701C36.6422 71.4901 34.4649 71.1626 32.2938 71.3105C30.1227 71.4583 28.0099 72.078 26.1029 73.1263C24.1959 74.1746 22.5405 75.6263 21.2521 77.3801C19.9638 79.1339 19.0735 81.1476 18.6434 83.2809C18.2133 85.4141 18.2536 87.6155 18.7617 89.7315C19.2698 91.8475 20.2333 93.8272 21.5851 95.5326C21.7194 95.7018 21.8591 95.871 22.0014 96.0349C22.0121 96.0456 22.0201 96.0563 22.0309 96.0671C22.381 96.4704 22.7532 96.8542 23.1456 97.2166C23.2476 97.3106 23.355 97.4073 23.4624 97.4986C23.6666 97.6813 23.876 97.8558 24.0936 98.0224C24.5184 98.3572 24.9613 98.6683 25.4204 98.9543L25.4365 98.9624C25.7346 99.1477 26.0381 99.3196 26.347 99.4834L26.4732 99.5479C26.7633 99.6983 27.0587 99.8406 27.3622 99.9722C27.424 99.9991 27.4911 100.026 27.5529 100.053C27.5583 100.055 27.561 100.055 27.5664 100.058C28.1796 100.313 28.8095 100.526 29.4518 100.695C30.7108 101.03 32.0083 101.2 33.3112 101.2C33.7866 101.2 34.2566 101.178 34.7212 101.132C35.7829 101.034 36.831 100.823 37.8475 100.501C37.8503 100.501 37.8529 100.499 37.8555 100.499C38.4977 100.294 39.125 100.046 39.733 99.7547C39.7356 99.752 39.7411 99.752 39.7437 99.7493C39.8806 99.6849 40.0123 99.615 40.1466 99.5479L40.2111 99.5156C40.3185 99.4592 40.4259 99.4028 40.5333 99.3437C40.8019 99.196 41.0651 99.0402 41.3257 98.8737C41.3982 98.8307 41.468 98.7851 41.5405 98.7368C41.7768 98.581 42.0105 98.4144 42.2361 98.2452C42.2765 98.2157 42.3194 98.1862 42.3597 98.1539C44.8759 96.244 46.7228 93.5864 47.6356 90.5623C48.5485 87.5381 48.4804 84.3025 47.4412 81.3194ZM41.8655 97.5013C41.7768 97.5711 41.6855 97.6383 41.5943 97.7C41.5056 97.7672 41.417 97.8317 41.3257 97.8907C41.2478 97.9471 41.1699 98.0009 41.0893 98.0519C41.0221 98.0975 40.955 98.1405 40.8878 98.1835C40.665 98.3231 40.4394 98.4574 40.2111 98.5863L40.1385 98.6266C40.0364 98.683 39.9344 98.7368 39.8324 98.7905C39.8189 98.7985 39.8027 98.8039 39.7894 98.812L39.7733 98.82C39.6443 98.8872 39.5128 98.9516 39.3811 99.0134C38.8733 99.258 38.3503 99.4697 37.8153 99.6472C37.7455 99.6714 37.6756 99.6956 37.6059 99.7171C36.6437 100.023 35.6514 100.225 34.6461 100.319C34.2056 100.359 33.7597 100.38 33.3112 100.38C32.0788 100.383 30.8514 100.222 29.6613 99.9024C29.0504 99.743 28.4518 99.5401 27.8699 99.2954C27.8081 99.2712 27.7463 99.2444 27.6872 99.2202C27.655 99.2068 27.6254 99.1933 27.5931 99.1772C27.3407 99.0671 27.091 98.9463 26.8466 98.82L26.7284 98.7582C26.4303 98.6025 26.1375 98.4359 25.8528 98.2587C25.7481 98.1942 25.6433 98.1271 25.5413 98.0572C25.2189 97.8451 24.9047 97.6168 24.5985 97.3777C24.3917 97.222 24.193 97.0554 23.9996 96.8835C23.8976 96.7976 23.7981 96.7036 23.7015 96.615C23.3207 96.2633 22.9602 95.8903 22.6218 95.4977C22.509 95.3688 22.3989 95.2399 22.2941 95.1056C22.2703 95.079 22.2478 95.0512 22.2269 95.0223C20.4819 92.8203 19.4323 90.1484 19.2119 87.3474C18.9916 84.5464 19.6105 81.7432 20.9897 79.2954C22.369 76.8476 24.4461 74.866 26.956 73.6035C29.466 72.3409 32.2952 71.8546 35.0827 72.2064C37.8703 72.5583 40.4898 73.7324 42.6073 75.5791C44.7248 77.4258 46.2443 79.8614 46.972 82.5752C47.6997 85.289 47.6026 88.158 46.6931 90.8164C45.7836 93.4747 44.103 95.802 41.8655 97.5013Z" fill="#3F3D56"/>
<path id="Vector_23" d="M33.3957 144.763C36.6333 144.763 39.2579 142.139 39.2579 138.901C39.2579 135.663 36.6333 133.039 33.3957 133.039C30.1581 133.039 27.5336 135.663 27.5336 138.901C27.5336 142.139 30.1581 144.763 33.3957 144.763Z" fill="#2F2E41"/>
<path id="Vector_24" d="M28.82 135.74C29.7673 134.793 29.9593 133.449 29.2488 132.739C28.5384 132.028 27.1945 132.22 26.2472 133.167C25.2999 134.115 25.1079 135.459 25.8183 136.169C26.5288 136.88 27.8727 136.688 28.82 135.74Z" fill="#2F2E41"/>
<path id="Vector_25" d="M39.5056 133.879C39.9003 132.955 39.2216 131.779 37.9896 131.253C36.7576 130.727 35.4389 131.049 35.0442 131.973C34.6495 132.897 35.3283 134.073 36.5602 134.599C37.7922 135.125 39.1109 134.803 39.5056 133.879Z" fill="#2F2E41"/>
<path id="Vector_26" d="M40.4077 150.272L39.7171 149.185C39.424 148.531 38.8834 148.019 38.2137 147.762C37.544 147.505 36.7998 147.524 36.144 147.815C35.4883 148.105 34.9745 148.644 34.7151 149.313C34.4558 149.981 34.4721 150.726 34.7604 151.383L34.9568 152.087L35.1803 152.886C36.0852 152.772 36.978 152.577 37.8482 152.303C37.8507 152.303 37.8531 152.302 37.8549 152.3C38.4981 152.097 39.1261 151.848 39.7341 151.555C39.7374 151.552 39.7407 151.552 39.7442 151.548C39.8796 151.484 40.0116 151.416 40.147 151.349C40.1692 151.339 40.1906 151.327 40.2113 151.315C40.3196 151.261 40.4281 151.203 40.5331 151.146C40.6413 151.088 40.7463 151.027 40.8478 150.963L40.4077 150.272Z" fill="#CACACA"/>
<path id="Vector_27" d="M33.5816 145.276C36.3293 145.276 38.5568 143.048 38.5568 140.3C38.5568 137.553 36.3293 135.325 33.5816 135.325C30.834 135.325 28.6065 137.553 28.6065 140.3C28.6065 143.048 30.834 145.276 33.5816 145.276Z" fill="#FFB6B6"/>
<path id="Vector_28" d="M40.7666 150.059C40.2179 149.146 39.5367 148.32 38.7453 147.608C38.2033 147.123 37.5018 146.856 36.7749 146.856H29.7665C29.3627 146.856 28.9631 146.938 28.5924 147.099C28.2218 147.259 27.888 147.494 27.6116 147.788C27.3353 148.083 27.1222 148.431 26.9856 148.811C26.8491 149.191 26.7919 149.595 26.8176 149.998C26.8329 150.225 26.8738 150.45 26.9396 150.668C26.9895 150.826 27.0518 150.98 27.1257 151.129L27.4711 151.819C27.4982 151.829 27.5253 151.843 27.5522 151.853C27.559 151.857 27.5625 151.857 27.5658 151.86C27.708 151.918 27.8503 151.975 27.9958 152.029C28.4722 152.211 28.9582 152.367 29.4517 152.496C30.246 152.71 31.0569 152.856 31.8757 152.933C32.3532 152.977 32.8306 153.001 33.3113 153.001C33.7888 153.001 34.2559 152.977 34.7231 152.933C34.8756 152.92 35.0278 152.903 35.1802 152.886C36.0851 152.772 36.9779 152.577 37.8481 152.303C37.8507 152.303 37.8531 152.302 37.8549 152.3C38.4981 152.097 39.126 151.848 39.734 151.555C39.7373 151.552 39.7406 151.552 39.7441 151.548C39.8795 151.484 40.0116 151.416 40.147 151.349C40.1691 151.339 40.1906 151.327 40.2113 151.315C40.3196 151.261 40.428 151.203 40.533 151.146C40.6413 151.088 40.7462 151.027 40.8478 150.963C40.9562 150.905 41.0577 150.841 41.1627 150.777C41.0341 150.523 40.902 150.286 40.7666 150.059Z" fill="#CACACA"/>
<path id="Vector_29" d="M31.0361 147.763C30.3875 147.46 29.6452 147.426 28.9715 147.668C28.2977 147.91 27.7474 148.41 27.4406 149.057L26.8176 149.998L26.5197 150.448L26.066 151.132C26.1608 151.183 26.2522 151.234 26.3471 151.284L26.4722 151.349C26.7635 151.498 27.0579 151.64 27.3628 151.772C27.3965 151.789 27.4339 151.802 27.4711 151.819C27.4982 151.829 27.5253 151.843 27.5522 151.853C27.559 151.857 27.5625 151.857 27.5658 151.86C27.7079 151.918 27.8503 151.975 27.9958 152.029C28.4722 152.211 28.9582 152.367 29.4517 152.496C30.246 152.71 31.0569 152.856 31.8757 152.933L32.1128 152.131L32.3431 151.366C32.6466 150.714 32.6794 149.97 32.4344 149.294C32.1894 148.619 31.6865 148.068 31.0361 147.763Z" fill="#CACACA"/>
<path id="Vector_30" d="M28.3539 137.171C29.4908 137.955 30.8402 138.372 32.221 138.366C31.7285 138.708 31.1678 138.938 30.5775 139.042C32.4133 139.436 34.3107 139.447 36.1508 139.074C36.5598 139.008 36.9545 138.873 37.3175 138.673C37.4984 138.572 37.656 138.434 37.78 138.268C37.9041 138.102 37.9919 137.912 38.0376 137.71C38.1599 137.011 37.6156 136.377 37.0499 135.949C36.1839 135.304 35.1853 134.86 34.1264 134.648C33.0676 134.437 31.975 134.463 30.9276 134.726C30.2297 134.866 29.5947 135.225 29.1144 135.75C28.8819 136.018 28.7416 136.353 28.7142 136.706C28.6867 137.059 28.7735 137.412 28.9618 137.712L28.3539 137.171Z" fill="#2F2E41"/>
<path id="Vector_31" d="M47.4431 133.12C46.7278 131.065 45.5728 129.19 44.0585 127.627C42.5443 126.064 40.7073 124.85 38.6756 124.07C36.644 123.289 34.4666 122.962 32.2953 123.11C30.124 123.257 28.0111 123.877 26.1039 124.926C24.1967 125.974 22.5412 127.426 21.2528 129.18C19.9644 130.934 19.0741 132.948 18.6441 135.081C18.214 137.214 18.2545 139.416 18.7627 141.532C19.271 143.648 20.2347 145.628 21.5868 147.333C21.7187 147.503 21.861 147.672 22.0032 147.834C22.0114 147.846 22.0204 147.858 22.0303 147.868C22.381 148.271 22.7539 148.655 23.1475 149.016C23.249 149.111 23.354 149.209 23.4625 149.3C23.6655 149.483 23.8754 149.656 24.0955 149.822C24.1801 149.889 24.2647 149.957 24.3529 150.022C24.6947 150.282 25.0536 150.523 25.4193 150.756C25.4256 150.756 25.4316 150.759 25.4362 150.763C25.5411 150.827 25.6496 150.892 25.7579 150.953C25.8594 151.014 25.9644 151.074 26.066 151.132C26.1608 151.183 26.2522 151.234 26.3471 151.284L26.4722 151.349C26.7635 151.498 27.0579 151.64 27.3628 151.772C27.3965 151.789 27.4339 151.802 27.4711 151.819C27.4982 151.829 27.5253 151.843 27.5522 151.853C27.559 151.857 27.5625 151.857 27.5658 151.86C27.7079 151.918 27.8503 151.975 27.9957 152.029C28.4722 152.211 28.9582 152.367 29.4517 152.496C30.246 152.71 31.0569 152.856 31.8757 152.933C32.3532 152.977 32.8306 153.001 33.3113 153.001C33.7888 153.001 34.2559 152.977 34.7231 152.933C34.8755 152.92 35.0278 152.903 35.1802 152.886C36.0851 152.772 36.9779 152.577 37.8481 152.303C37.8507 152.303 37.8531 152.302 37.8549 152.3C38.4981 152.097 39.126 151.848 39.734 151.555C39.7373 151.552 39.7406 151.552 39.7441 151.548C39.8795 151.484 40.0116 151.416 40.147 151.349C40.1691 151.339 40.1906 151.327 40.2113 151.315C40.3196 151.261 40.428 151.203 40.533 151.146C40.6413 151.088 40.7462 151.027 40.8477 150.963C40.9562 150.905 41.0577 150.841 41.1627 150.777C41.2169 150.743 41.2711 150.709 41.3252 150.675C41.3997 150.631 41.4674 150.587 41.5419 150.536C41.6434 150.472 41.7451 150.401 41.8431 150.33C41.9752 150.238 42.1073 150.143 42.2359 150.045C42.2793 150.017 42.3211 149.986 42.3612 149.954C44.8755 148.043 46.721 145.385 47.6337 142.362C48.5465 139.338 48.4797 136.103 47.4431 133.12ZM41.8669 149.3C41.7788 149.371 41.6874 149.439 41.5962 149.5C41.5046 149.568 41.4166 149.632 41.3252 149.693C41.2473 149.747 41.1695 149.801 41.0883 149.852C41.0809 149.859 41.073 149.864 41.0645 149.869C41.007 149.91 40.946 149.947 40.8884 149.984C40.8478 150.008 40.8073 150.035 40.7666 150.059C40.6481 150.133 40.5295 150.204 40.4077 150.272C40.3434 150.313 40.2756 150.35 40.2113 150.387C40.1877 150.401 40.1639 150.414 40.1402 150.428C40.0352 150.485 39.9337 150.536 39.8321 150.59C39.8187 150.6 39.8016 150.604 39.7916 150.614C39.7852 150.614 39.7792 150.617 39.7745 150.621C39.6459 150.689 39.5138 150.753 39.3819 150.814C38.8735 151.058 38.3499 151.27 37.8142 151.447C37.7466 151.471 37.6755 151.498 37.6077 151.518C36.7443 151.792 35.8565 151.982 34.9567 152.087C34.8552 152.1 34.7502 152.11 34.6453 152.121C34.2052 152.161 33.7617 152.182 33.3113 152.182C32.9118 152.182 32.5089 152.165 32.1128 152.131C31.2847 152.062 30.4644 151.919 29.6617 151.704C29.0506 151.545 28.452 151.341 27.8706 151.095C27.84 151.081 27.8096 151.071 27.7792 151.058C27.7453 151.044 27.7182 151.034 27.6878 151.02C27.6539 151.007 27.6268 150.993 27.5929 150.976C27.3729 150.881 27.1528 150.777 26.9396 150.668C26.909 150.651 26.8786 150.638 26.8482 150.621L26.7296 150.56C26.6585 150.523 26.5875 150.485 26.5197 150.448C26.2929 150.326 26.0694 150.194 25.8528 150.059C25.7715 150.008 25.6835 149.954 25.6022 149.9L25.5412 149.859C25.3516 149.73 25.1621 149.602 24.9758 149.463C24.8505 149.368 24.7219 149.277 24.6 149.178C24.3936 149.023 24.1937 148.857 24.0008 148.684C23.8991 148.6 23.7976 148.505 23.7029 148.417C23.3216 148.065 22.961 147.692 22.6229 147.299C22.5111 147.171 22.3994 147.042 22.2944 146.907C22.2707 146.88 22.2504 146.853 22.2266 146.822C20.4812 144.62 19.4312 141.948 19.2106 139.146C18.9901 136.345 19.6089 133.541 20.9881 131.093C22.3674 128.645 24.4447 126.663 26.9549 125.4C29.4652 124.137 32.2947 123.651 35.0826 124.002C37.8706 124.354 40.4905 125.528 42.6084 127.375C44.7262 129.222 46.246 131.658 46.9739 134.372C47.7018 137.086 47.6047 139.956 46.6952 142.614C45.7856 145.273 44.1047 147.601 41.8669 149.3Z" fill="#3F3D56"/>
<path id="Vector_32" d="M58.3429 60.0192C53.1331 55.623 46.7578 52.8359 39.9928 51.997C33.2278 51.1581 26.3649 52.3036 20.239 55.294C14.1132 58.2845 8.98862 62.9909 5.48888 68.8407C1.98913 74.6906 0.26512 81.4315 0.526624 88.2433C0.788128 95.055 3.02387 101.644 6.96181 107.208C10.8997 112.772 16.3701 117.072 22.7071 119.584C29.0442 122.096 35.9748 122.712 42.6555 121.357C49.3363 120.002 55.4791 116.734 60.3366 111.952L103.47 148.348C104.127 148.9 104.976 149.169 105.83 149.096C106.685 149.023 107.476 148.614 108.03 147.959C108.584 147.304 108.855 146.456 108.785 145.601C108.714 144.746 108.308 143.954 107.654 143.398L107.65 143.394L64.516 106.999C69.5268 99.807 71.6714 91.0034 70.5294 82.3131C69.3875 73.6228 65.0415 65.6721 58.3429 60.0192ZM55.5622 103.494C52.2019 107.476 47.7362 110.373 42.7297 111.817C37.7233 113.261 32.4009 113.189 27.4358 111.608C22.4706 110.028 18.0856 107.01 14.8353 102.938C11.585 98.8649 9.61543 93.9199 9.17557 88.7279C8.7357 83.5358 9.84533 78.3299 12.3641 73.7685C14.883 69.2071 18.6978 65.495 23.3263 63.1018C27.9548 60.7085 33.1891 59.7414 38.3672 60.3229C43.5453 60.9044 48.4347 63.0083 52.417 66.3686C57.7572 70.8747 61.0887 77.3175 61.6785 84.2798C62.2684 91.2422 60.0683 98.1536 55.5622 103.494Z" fill="#3F3D56"/>
<path id="Vector_33" opacity="0.3" d="M18.4371 106.639C13.3829 102.374 10.1176 96.3643 9.2894 89.8031C8.4612 83.242 10.1307 76.6093 13.9665 71.2221C13.4627 71.7294 12.9758 72.2607 12.5055 72.816C10.2744 75.4602 8.58588 78.5179 7.53645 81.8147C6.48702 85.1114 6.09721 88.5826 6.38927 92.03C6.68133 95.4773 7.64955 98.8335 9.23864 101.907C10.8277 104.98 13.0066 107.71 15.6508 109.941C18.295 112.172 21.3527 113.861 24.6495 114.91C27.9462 115.96 31.4174 116.349 34.8648 116.057C38.3121 115.765 41.6683 114.797 44.7415 113.208C47.8147 111.619 50.5448 109.44 52.776 106.796C53.2451 106.24 53.6869 105.671 54.1013 105.088C49.4362 109.775 43.1789 112.537 36.572 112.824C29.965 113.111 23.4916 110.904 18.4371 106.639Z" fill="black"/>
<path id="Vector_34" d="M145.3 149.708C145.637 149.297 145.88 148.817 146.011 148.301C146.142 147.786 146.159 147.248 146.06 146.726C145.961 146.204 145.748 145.709 145.438 145.278C145.127 144.846 144.725 144.488 144.261 144.229L136.399 112.048L130.663 113.879L139.153 145.84C138.769 146.649 138.695 147.57 138.945 148.43C139.194 149.289 139.751 150.028 140.509 150.504C141.266 150.981 142.173 151.164 143.056 151.017C143.939 150.87 144.737 150.404 145.3 149.708Z" fill="#FFB6B6"/>
<path id="Vector_35" d="M141.236 129.124L137.045 132.74L131.181 137.795L128.591 124.544L128.32 123.166L128.107 122.072L134.049 111.722L139.002 112.006L139.34 112.026L139.347 112.101L139.425 112.795L140.441 121.93L140.465 122.15L141.236 129.124Z" fill="#3F3D56"/>
<path id="Vector_36" d="M113.84 219.073L109.689 219.073L107.715 203.063L113.841 203.063L113.84 219.073Z" fill="#FFB6B6"/>
<path id="Vector_37" d="M114.899 223.097L101.515 223.096V222.927C101.515 221.545 102.064 220.22 103.041 219.243C104.018 218.266 105.343 217.718 106.724 217.718H106.724L114.899 217.718L114.899 223.097Z" fill="#2F2E41"/>
<path id="Vector_38" d="M157.177 219.412L153.026 219.411L151.051 203.401L157.178 203.401L157.177 219.412Z" fill="#FFB6B6"/>
<path id="Vector_39" d="M158.235 223.435L144.851 223.435V223.265C144.852 221.884 145.4 220.559 146.377 219.582C147.354 218.605 148.679 218.056 150.061 218.056H150.061L158.236 218.056L158.235 223.435Z" fill="#2F2E41"/>
<path id="Vector_40" d="M160.494 213.038L149.321 214.731L133.067 159.721L115.803 215.07L103.276 213.377L119.527 149.049V143.971L121.728 136.353L121.498 134.291L119.896 119.871L119.202 113.618L119.157 113.214C119.12 112.875 119.21 112.534 119.409 112.258C119.609 111.981 119.905 111.789 120.239 111.719L125.452 110.622H133.974L139.002 112.006L139.347 112.101L139.503 112.145L139.425 112.795L138.247 122.675L138.183 123.216L137.045 132.74L136.794 134.829C146.613 141.939 146.951 149.049 146.951 149.049L160.494 213.038Z" fill="#2F2E41"/>
<path id="Vector_41" d="M128.683 106.338C133.276 106.338 136.999 102.615 136.999 98.0226C136.999 93.43 133.276 89.707 128.683 89.707C124.091 89.707 120.368 93.43 120.368 98.0226C120.368 102.615 124.091 106.338 128.683 106.338Z" fill="#FFB6B6"/>
<path id="Vector_42" d="M137.417 132.918L120.968 135.07L121.275 137.419L137.725 135.268L137.417 132.918Z" fill="#3F3D56"/>
<path id="Vector_43" d="M98.9028 135.778C99.0601 135.88 99.2092 135.994 99.3485 136.119L115.619 131.971L116.729 128.046L122.871 128.947L121.582 136.087C121.478 136.663 121.189 137.191 120.76 137.59C120.33 137.989 119.783 138.237 119.2 138.299L100.203 140.299C99.893 140.951 99.3922 141.494 98.7669 141.854C98.1416 142.214 97.4214 142.376 96.7021 142.317C95.9828 142.258 95.2985 141.981 94.7402 141.524C94.1819 141.067 93.7761 140.45 93.5767 139.757C93.3773 139.063 93.3938 138.325 93.624 137.641C93.8542 136.957 94.2872 136.359 94.8654 135.928C95.4436 135.496 96.1396 135.25 96.8608 135.223C97.582 135.197 98.2943 135.39 98.9028 135.778Z" fill="#FFB6B6"/>
<path id="Vector_44" d="M123.929 113.838L121.051 111.637C120.273 111.342 119.207 112.181 119.02 112.992L114.957 129.581L123.421 135.676L124.606 133.813L123.929 113.838Z" fill="#3F3D56"/>
<g id="Group" opacity="0.2">
<path id="Vector_45" d="M140.441 121.93C139.723 122.215 138.99 122.463 138.247 122.675C138.01 122.746 137.766 122.813 137.526 122.878C135.941 123.317 134.313 123.581 132.671 123.663C131.964 123.693 131.256 123.674 130.551 123.606C129.795 123.53 129.048 123.383 128.32 123.166C128.296 123.159 128.269 123.152 128.246 123.145C126.732 122.715 125.344 121.927 124.2 120.846C123.944 120.597 123.705 120.332 123.485 120.051C122.853 119.276 122.389 118.379 122.123 117.415C121.858 116.452 121.796 115.443 121.941 114.454C121.97 114.275 122.008 114.097 122.057 113.923C122.184 113.446 122.353 112.982 122.561 112.534C122.652 112.325 122.754 112.118 122.862 111.915L126.688 110.622H133.974L139.002 112.006L139.34 112.027L139.347 112.101L139.503 112.145L139.425 112.795L140.441 121.93Z" fill="black"/>
</g>
<path id="Vector_46" d="M122.312 91.1382C120.756 90.9476 119.05 91.0824 117.838 92.0751C116.626 93.0679 116.234 95.1317 117.382 96.1983C118.398 97.1426 119.987 96.9205 121.348 97.1891C122.52 97.4518 123.57 98.1003 124.33 99.0306C125.09 99.9609 125.516 101.119 125.54 102.321C125.52 105.765 122.214 108.374 121.62 111.767C121.215 114.083 122.192 116.52 123.88 118.156C125.569 119.791 127.89 120.675 130.229 120.915C132.567 121.154 134.932 120.789 137.205 120.188C139.487 119.584 141.734 118.728 143.649 117.348C145.565 115.967 147.134 114.021 147.749 111.742C148.364 109.463 147.923 106.849 146.338 105.099C144.524 103.095 141.505 102.406 139.936 100.205C138.177 97.7376 138.828 94.2238 137.404 91.5488C136.453 89.7628 134.653 88.5446 132.734 87.9029C130.815 87.2611 128.767 87.1345 126.744 87.0723C125.681 87.0397 124.586 87.0288 123.595 87.4163C122.605 87.8038 121.735 88.687 121.683 89.7492C121.632 90.8115 122.312 91.1382 122.312 91.1382Z" fill="#2F2E41"/>
<path id="Vector_47" d="M200.161 223.572H71.1672C71.0774 223.572 70.9913 223.536 70.9278 223.473C70.8643 223.409 70.8286 223.323 70.8286 223.233C70.8286 223.144 70.8643 223.057 70.9278 222.994C70.9913 222.93 71.0774 222.895 71.1672 222.895H200.161C200.251 222.895 200.337 222.93 200.401 222.994C200.464 223.057 200.5 223.144 200.5 223.233C200.5 223.323 200.464 223.409 200.401 223.473C200.337 223.536 200.251 223.572 200.161 223.572Z" fill="#CACACA"/>
</g>
<defs>
<clipPath id="clip0_54696_26158">
<rect width="200" height="223.333" fill="white" transform="translate(0.5 0.333344)"/>
</clipPath>
</defs>
</svg>
